<svg id="Layer_5" enable-background="new 0 0 64 64" height="512" viewBox="0 0 64 64" width="512" xmlns="http://www.w3.org/2000/svg"><g><g><g><path d="m47 62h-30c0-1.1.45-2.1 1.17-2.83.73-.72 1.73-1.17 2.83-1.17h2 18 2c2.21 0 4 1.79 4 4z" fill="#969faa"/></g><g><path d="m41 52v6h-18v-6h3 4 4 4z" fill="#aab2bd"/></g><g><path d="m58 12h-52c-2.21 0-4 1.79-4 4v32c0 2.21 1.79 4 4 4h52c2.21 0 4-1.79 4-4v-32c0-2.21-1.79-4-4-4z" fill="#ccd1d9"/></g><g><path d="m58 17v26c0 .55-.45 1-1 1h-3v-28h3c.55 0 1 .45 1 1z" fill="#69d6f4"/></g><g><path d="m10 16v28h-3c-.55 0-1-.45-1-1v-26c0-.55.45-1 1-1z" fill="#69d6f4"/></g><g><path d="m10 10h44v34h-44z" fill="#e6e9ed"/></g><g><path d="m10 10v-6c0-1.1.9-2 2-2h40c1.1 0 2 .9 2 2v6z" fill="#b4dd7f"/></g><g><path d="m50 32v12h-36v-12z" fill="#f0d0b4"/></g><g><path d="m32 14h18v6h-18z" fill="#fcd770"/></g><g><path d="m14 14h14v14h-14z" fill="#fcd770"/></g><g><path d="m42 36h4v4h-4z" fill="#ff826e"/></g><g><path d="m34 36h4v4h-4z" fill="#ff826e"/></g><g><path d="m26 36h4v4h-4z" fill="#ff826e"/></g><g><path d="m18 36h4v4h-4z" fill="#ff826e"/></g><g><path d="m38 50v2h-12s.007-1.005.011-2.008c.004-1.101.899-1.992 2-1.992h7.989c1.105 0 2 .895 2 2z" fill="#ff826e"/></g></g><g><path d="m58 11h-3v-7c0-1.654-1.346-3-3-3h-40c-1.654 0-3 1.346-3 3v7h-3c-2.757 0-5 2.243-5 5v32c0 2.757 2.243 5 5 5h16v4h-1c-2.757 0-5 2.243-5 5v1h32v-1c0-2.757-2.243-5-5-5h-1v-4h16c2.757 0 5-2.243 5-5v-32c0-2.757-2.243-5-5-5zm-9 32h-34v-10h34zm-36-12v12h-2v-32h42v32h-2v-12zm-4 12h-2v-26h2zm46-26h2v26h-2zm-43-14h40c.551 0 1 .449 1 1v5h-42v-5c0-.551.449-1 1-1zm33.829 58h-27.658c.413-1.164 1.525-2 2.829-2h22c1.304 0 2.416.836 2.829 2zm-5.829-4h-16v-4h16zm-7-8v2h-1.998c.001-.826-.001-1.483-.013-2zm4 2h-2v-2h1c.551 0 1 .448 1 1zm-7.995-2c0 .609-.001 1.386-.003 2h-2.002v-1c0-.552.449-1 1-1zm31.995-1c0 1.654-1.346 3-3 3h-19v-1c0-1.654-1.346-3-3-3h-5.921c-.013-.001-.025-.001-.038-.002l-.002.002h-2.039c-1.654 0-3 1.346-3 3v1h-19c-1.654 0-3-1.346-3-3v-32c0-1.654 1.346-3 3-3h3v2h-2c-1.103 0-2 .897-2 2v26c0 1.103.897 2 2 2h6 38 6c1.103 0 2-.897 2-2v-26c0-1.103-.897-2-2-2h-2v-2h3c1.654 0 3 1.346 3 3z"/><path d="m21 5h2v2h-2z"/><path d="m13 5h2v2h-2z"/><path d="m17 5h2v2h-2z"/><path d="m13 29h16v-16h-16zm2-14h12v12h-12z"/><path d="m23 35h-6v6h6zm-2 4h-2v-2h2z"/><path d="m31 35h-6v6h6zm-2 4h-2v-2h2z"/><path d="m39 35h-6v6h6zm-2 4h-2v-2h2z"/><path d="m47 35h-6v6h6zm-2 4h-2v-2h2z"/><path d="m51 13h-20v8h20zm-2 6h-16v-4h16z"/><path d="m31 23h20v2h-20z"/><path d="m31 27h20v2h-20z"/></g></g></svg>